<svg id="visual" viewBox="0 0 900 600" width="900" height="600" xmlns="http://www.w3.org/2000/svg" xmlns:xlink="http://www.w3.org/1999/xlink" version="1.1"><rect x="0" y="0" width="900" height="600" fill="#e8edf6"></rect><defs><linearGradient id="grad1_0" x1="33.3%" y1="0%" x2="100%" y2="100%"><stop offset="20%" stop-color="#e8edf6" stop-opacity="1"></stop><stop offset="80%" stop-color="#e8edf6" stop-opacity="1"></stop></linearGradient></defs><defs><linearGradient id="grad2_0" x1="0%" y1="0%" x2="66.7%" y2="100%"><stop offset="20%" stop-color="#e8edf6" stop-opacity="1"></stop><stop offset="80%" stop-color="#e8edf6" stop-opacity="1"></stop></linearGradient></defs><g transform="translate(900, 0)"><path d="M0 297.5C-24.6 286.1 -49.3 274.8 -70.1 261.8C-91 248.7 -108.1 234 -128.5 222.6C-148.9 211.1 -172.8 203.1 -187.4 187.4C-202 171.7 -207.4 148.5 -225.2 130C-243 111.5 -273.2 97.9 -287.3 77C-301.4 56.1 -299.5 28.1 -297.5 0L0 0Z" fill="#c4d0e3"></path></g><g transform="translate(0, 600)"><path d="M0 -297.5C27.4 -298.2 54.8 -298.9 77 -287.3C99.2 -275.8 116.3 -251.9 137 -237.3C157.7 -222.7 182 -217.3 204.4 -204.4C226.7 -191.4 247 -170.7 253.7 -146.5C260.5 -122.3 253.8 -94.4 258.9 -69.4C263.9 -44.3 280.7 -22.2 297.5 0L0 0Z" fill="#c4d0e3"></path></g></svg>